<?xml version="1.0" encoding="utf-8"?>
<!-- Generator: Adobe Illustrator 19.0.0, SVG Export Plug-In . SVG Version: 6.00 Build 0)  -->
<svg version="1.1" id="Layer_1" xmlns="http://www.w3.org/2000/svg" xmlns:xlink="http://www.w3.org/1999/xlink" x="0px" y="0px"
	 width="250px" height="250px" xml:space="default">
<g id="XMLID_58_">
	<polygon id="XMLID_95_" fill="#A7B6D3" points="761.1,309.6 760.1,311.5 711.6,404.6 693.9,383.7 635.6,314.6 635.6,196.1 
		635.8,195.9 636.7,194.9 681.9,147.8 683.6,146.1 686.1,147.1 745.1,169.4 745.2,170.6 745.5,173.1 	"/>
	<polygon id="XMLID_92_" fill="#D5E1EF" points="681.9,147.8 673.1,212.6 636.7,194.9 	"/>
	<polygon id="XMLID_49_" fill="#5A649F" points="745.2,170.6 728.1,196.1 686.1,147.1 745.1,169.4 	"/>
	<polygon id="XMLID_35_" fill="#5A649F" points="709.1,212.6 728.1,196.1 736.1,324.9 709.1,335.1 	"/>
	<polygon id="XMLID_47_" fill="#D5E1EF" points="761.1,309.6 760.1,311.5 736.1,324.9 728.1,196.1 745.5,173.1 	"/>
	<polygon id="XMLID_45_" fill="#84AECE" points="711.6,334.2 711.6,404.6 693.9,383.7 671.1,332.1 	"/>
	<polygon id="XMLID_46_" fill="#5F92BF" points="673.1,212.6 671.1,332.1 635.6,314.5 635.6,196.1 635.8,195.9 	"/>
	
		<polygon id="XMLID_32_" fill="none" stroke="#231F20" stroke-width="11" stroke-linecap="round" stroke-linejoin="round" stroke-miterlimit="10" points="
		683.6,146.1 635.6,196.1 635.6,314.6 711.6,404.6 761.1,309.6 745.1,169.4 	"/>
	
		<polyline id="XMLID_34_" fill="none" stroke="#231F20" stroke-width="11" stroke-linecap="round" stroke-linejoin="round" stroke-miterlimit="10" points="
		635.6,196.1 673.1,212.6 709.1,212.6 728.1,196.1 745.1,169.4 	"/>
	
		<polyline id="XMLID_36_" fill="none" stroke="#231F20" stroke-width="11" stroke-linecap="round" stroke-linejoin="round" stroke-miterlimit="10" points="
		635.6,314.6 671.1,332.1 709.1,335.1 736.1,324.9 761.1,309.6 	"/>
	
		<polygon id="XMLID_38_" fill="none" stroke="#231F20" stroke-width="11" stroke-linecap="round" stroke-linejoin="round" stroke-miterlimit="10" points="
		671.1,332.1 673.1,212.6 683.6,146.1 709.1,212.6 709.1,335.1 711.6,404.6 	"/>
	
		<polyline id="XMLID_39_" fill="none" stroke="#231F20" stroke-width="11" stroke-linecap="round" stroke-linejoin="round" stroke-miterlimit="10" points="
		683.6,146.1 728.1,196.1 736.1,324.9 711.6,404.6 	"/>
	<g id="XMLID_37_">
		<polygon id="XMLID_57_" fill="#5A649F" points="654.1,362 653.7,362.2 606.1,401.6 605.5,401.2 547.6,358.8 592.6,320.6 		"/>
		<polygon id="XMLID_55_" fill="#A7B6D3" points="653.7,362.2 606.1,401.6 605.5,401.2 603.6,347.1 		"/>
		
			<polygon id="XMLID_40_" fill="none" stroke="#231F20" stroke-width="11" stroke-linecap="round" stroke-linejoin="round" stroke-miterlimit="10" points="
			547.6,358.8 592.6,320.6 654.1,362 606.1,401.6 		"/>
		
			<polyline id="XMLID_41_" fill="none" stroke="#231F20" stroke-width="11" stroke-linecap="round" stroke-linejoin="round" stroke-miterlimit="10" points="
			547.6,358.8 603.6,347.1 654.1,362 		"/>
		
			<polyline id="XMLID_43_" fill="none" stroke="#231F20" stroke-width="11" stroke-linecap="round" stroke-linejoin="round" stroke-miterlimit="10" points="
			606.1,401.6 603.6,347.1 592.6,320.6 		"/>
	</g>
	<g id="XMLID_44_">
		<polygon id="XMLID_65_" fill="#5F92BF" points="869.4,322.5 761.2,376 761.1,375.6 790.8,298.9 791.3,298.6 854.9,265.3 
			855,265.3 869.2,321.8 		"/>
		<polygon id="XMLID_63_" fill="#5A649F" points="869.2,321.8 840.8,320.7 854.9,265.3 855,265.3 		"/>
		<polygon id="XMLID_53_" fill="#A7B6D3" points="761.1,375.6 790.8,298.9 791.3,298.6 840.8,320.7 		"/>
		
			<polygon id="XMLID_51_" fill="none" stroke="#231F20" stroke-width="11" stroke-linecap="round" stroke-linejoin="round" stroke-miterlimit="10" points="
			855,265.3 869.4,322.5 761.1,376 790.8,298.9 		"/>
		
			<polyline id="XMLID_50_" fill="none" stroke="#231F20" stroke-width="11" stroke-linecap="round" stroke-linejoin="round" stroke-miterlimit="10" points="
			855,265.3 840.8,320.7 761.1,376 		"/>
		
			<polyline id="XMLID_48_" fill="none" stroke="#231F20" stroke-width="11" stroke-linecap="round" stroke-linejoin="round" stroke-miterlimit="10" points="
			790.8,298.9 840.8,320.7 869.4,322.5 		"/>
	</g>
	<g id="XMLID_66_">
		
			<line id="XMLID_69_" fill="none" stroke="#231F20" stroke-width="11" stroke-linecap="round" stroke-linejoin="round" stroke-miterlimit="10" x1="774.6" y1="170.4" x2="763.8" y2="169.8"/>
		
			<line id="XMLID_68_" fill="none" stroke="#231F20" stroke-width="11" stroke-linecap="round" stroke-linejoin="round" stroke-miterlimit="10" x1="747.5" y1="151.4" x2="748.2" y2="140.7"/>
		
			<line id="XMLID_67_" fill="none" stroke="#231F20" stroke-width="11" stroke-linecap="round" stroke-linejoin="round" stroke-miterlimit="10" x1="759.5" y1="157.2" x2="767.5" y2="150.1"/>
	</g>
	<g id="XMLID_70_">
		
			<line id="XMLID_73_" fill="none" stroke="#231F20" stroke-width="11" stroke-linecap="round" stroke-linejoin="round" stroke-miterlimit="10" x1="606.1" y1="203.5" x2="616" y2="199.4"/>
		
			<line id="XMLID_72_" fill="none" stroke="#231F20" stroke-width="11" stroke-linecap="round" stroke-linejoin="round" stroke-miterlimit="10" x1="625.5" y1="176.8" x2="621.4" y2="166.8"/>
		
			<line id="XMLID_71_" fill="none" stroke="#231F20" stroke-width="11" stroke-linecap="round" stroke-linejoin="round" stroke-miterlimit="10" x1="616.1" y1="186.2" x2="606.1" y2="182"/>
	</g>
	<g id="XMLID_74_">
		
			<line id="XMLID_77_" fill="none" stroke="#231F20" stroke-width="11" stroke-linecap="round" stroke-linejoin="round" stroke-miterlimit="10" x1="516.6" y1="365.5" x2="526.6" y2="361.4"/>
		
			<line id="XMLID_76_" fill="none" stroke="#231F20" stroke-width="11" stroke-linecap="round" stroke-linejoin="round" stroke-miterlimit="10" x1="536" y1="338.7" x2="532" y2="328.8"/>
		
			<line id="XMLID_75_" fill="none" stroke="#231F20" stroke-width="11" stroke-linecap="round" stroke-linejoin="round" stroke-miterlimit="10" x1="526.6" y1="348.1" x2="516.7" y2="343.9"/>
	</g>
</g>
</svg>
