<?xml version="1.0" encoding="utf-8"?>
<!-- Generator: Adobe Illustrator 19.0.0, SVG Export Plug-In . SVG Version: 6.00 Build 0)  -->
<svg version="1.1" id="Layer_1" xmlns="http://www.w3.org/2000/svg" xmlns:xlink="http://www.w3.org/1999/xlink" x="0px" y="0px"
	 width="1400px" height="980px" viewBox="0 0 1400 980" enable-background="new 0 0 1400 980" xml:space="preserve">
<g id="XMLID_1_">
	<g id="XMLID_52_">
		<polygon id="XMLID_97_" fill="#A7B6D3" points="1186,177.7 1185.5,181.3 1154.8,394.5 1083.6,394.5 1039.8,183.8 1039.4,181.8 
			1053.3,155 1100.4,137.8 1150.3,137.8 1182.2,155 1186,177.4 		"/>
		<polygon id="XMLID_93_" fill="#5F92BF" points="1100.4,394.5 1083.6,394.5 1039.8,183.8 1086.5,210.3 		"/>
		<polygon id="XMLID_90_" fill="#5F92BF" points="1186,177.4 1129.2,163.3 1102.3,137.8 1150.3,137.8 1182.2,155 		"/>
		<polygon id="XMLID_83_" fill="#D5E1EF" points="1086.5,210.3 1163.7,204.9 1121.3,164.6 		"/>
		<polygon id="XMLID_91_" fill="#5A649F" points="1185.5,181.3 1154.8,394.5 1135.4,394.5 1163.7,204.9 		"/>
		
			<polygon id="XMLID_80_" fill="none" stroke="#231F20" stroke-width="11" stroke-linecap="round" stroke-linejoin="round" stroke-miterlimit="10" points="
			1100.4,137.8 1150.3,137.8 1182.2,155 1186,177.7 1163.7,204.9 1086.5,210.3 1039.4,181.8 1053.3,155 		"/>
		
			<polyline id="XMLID_79_" fill="none" stroke="#231F20" stroke-width="11" stroke-linecap="round" stroke-linejoin="round" stroke-miterlimit="10" points="
			1099.4,394.5 1086.5,210.3 1123.4,161.8 1053.3,155 		"/>
		
			<polyline id="XMLID_84_" fill="none" stroke="#231F20" stroke-width="11" stroke-linecap="round" stroke-linejoin="round" stroke-miterlimit="10" points="
			1100.4,137.8 1123.4,161.8 1163.7,204.9 1135.4,394.5 		"/>
		
			<polyline id="XMLID_82_" fill="none" stroke="#231F20" stroke-width="11" stroke-linecap="round" stroke-linejoin="round" stroke-miterlimit="10" points="
			1123.4,161.8 1039.4,181.8 1083.6,394.5 1154.8,394.5 1186,177.7 1123.4,161.8 1150.3,137.8 		"/>
	</g>
	<g id="XMLID_85_">
		<polygon id="XMLID_118_" fill="#84AECE" points="1095.5,394.8 1057.7,416.7 970.7,319.2 969.8,318.2 969,317.2 968.2,298.7 
			987.9,275.1 1013.1,260.6 1014.4,259.9 1036.6,259.2 1045.5,270 1045.6,270.1 1046.5,272.2 		"/>
		<polygon id="XMLID_116_" fill="#5A649F" points="1013.1,260.6 1007.2,283 970.7,319.2 969.8,318.2 969,317.2 968.2,298.7 
			987.9,275.1 		"/>
		<polygon id="XMLID_99_" fill="#5F92BF" points="1066.6,411.5 1057.7,416.7 969.8,318.2 1002.8,317.9 		"/>
		<polygon id="XMLID_96_" fill="#D5E1EF" points="1002.8,317.9 1037,294.8 1007.2,283 		"/>
		<polygon id="XMLID_94_" fill="#D5E1EF" points="1046.5,272.2 1095.5,394.8 1085.2,400.8 1037,294.8 		"/>
		
			<polygon id="XMLID_89_" fill="none" stroke="#231F20" stroke-width="11" stroke-linecap="round" stroke-linejoin="round" stroke-miterlimit="10" points="
			987.9,275.1 1014.4,259.9 1036.6,259.2 1045.6,270.1 1037,294.8 1002.8,317.9 969,317.2 968.2,298.8 		"/>
		
			<polyline id="XMLID_81_" fill="none" stroke="#231F20" stroke-width="11" stroke-linecap="round" stroke-linejoin="round" stroke-miterlimit="10" points="
			1066,411.8 1002.8,317.9 1007.5,280.9 		"/>
		
			<polyline id="XMLID_88_" fill="none" stroke="#231F20" stroke-width="11" stroke-linecap="round" stroke-linejoin="round" stroke-miterlimit="10" points="
			1007.5,280.9 1037.2,294.7 1085.2,400.8 		"/>
		
			<polyline id="XMLID_86_" fill="none" stroke="#231F20" stroke-width="11" stroke-linecap="round" stroke-linejoin="round" stroke-miterlimit="10" points="
			1007.5,280.9 969,317.2 1057.7,416.7 1095.5,394.8 1045.6,270.1 1007.5,280.9 1014.4,259.9 		"/>
	</g>
	<g id="XMLID_101_">
		<polygon id="XMLID_110_" fill="#A7B6D3" points="1189.6,250.2 1188.6,252.6 1132,394.3 1175.7,419.4 1277.1,305.7 1278.1,304.6 
			1279.1,283.3 1256.3,256 1225.6,238.4 1200,237.7 1189.7,250.1 		"/>
		<polygon id="XMLID_109_" fill="#5A649F" points="1165.4,413.5 1175.7,419.4 1277.1,305.7 1239.1,305.4 		"/>
		<polygon id="XMLID_108_" fill="#5F92BF" points="1189.7,250.1 1229.6,261.5 1255.1,255.4 1225.6,238.4 1200,237.7 		"/>
		<polygon id="XMLID_107_" fill="#5A649F" points="1239.1,305.4 1193.7,274.8 1234,265.1 		"/>
		<polygon id="XMLID_106_" fill="#5F92BF" points="1188.6,252.6 1132,394.3 1143.9,401.1 1193.7,274.8 		"/>
		
			<polygon id="XMLID_105_" fill="none" stroke="#231F20" stroke-width="11" stroke-linecap="round" stroke-linejoin="round" stroke-miterlimit="10" points="
			1256.3,256 1225.7,238.4 1200,237.7 1189.6,250.2 1193.7,274.8 1239.1,305.4 1278.1,304.6 1279.1,283.3 		"/>
		
			<polyline id="XMLID_104_" fill="none" stroke="#231F20" stroke-width="11" stroke-linecap="round" stroke-linejoin="round" stroke-miterlimit="10" points="
			1166,413.9 1239.1,305.4 1233.7,262.6 1279.1,283.3 		"/>
		
			<polyline id="XMLID_103_" fill="none" stroke="#231F20" stroke-width="11" stroke-linecap="round" stroke-linejoin="round" stroke-miterlimit="10" points="
			1256.3,256 1233.7,262.6 1193.7,274.8 1144,401.1 		"/>
		
			<polyline id="XMLID_102_" fill="none" stroke="#231F20" stroke-width="11" stroke-linecap="round" stroke-linejoin="round" stroke-miterlimit="10" points="
			1233.7,262.6 1278.1,304.6 1175.7,419.5 1132,394.3 1189.6,250.2 1233.7,262.6 1225.7,238.4 		"/>
	</g>
	<g id="XMLID_87_">
		
			<line id="XMLID_111_" fill="none" stroke="#231F20" stroke-width="11" stroke-linecap="round" stroke-linejoin="round" stroke-miterlimit="10" x1="1213.6" y1="154.1" x2="1202.9" y2="153.5"/>
		
			<line id="XMLID_100_" fill="none" stroke="#231F20" stroke-width="11" stroke-linecap="round" stroke-linejoin="round" stroke-miterlimit="10" x1="1186.6" y1="135.1" x2="1187.2" y2="124.4"/>
		
			<line id="XMLID_98_" fill="none" stroke="#231F20" stroke-width="11" stroke-linecap="round" stroke-linejoin="round" stroke-miterlimit="10" x1="1198.5" y1="140.9" x2="1206.6" y2="133.8"/>
	</g>
	<g id="XMLID_113_">
		
			<line id="XMLID_117_" fill="none" stroke="#231F20" stroke-width="11" stroke-linecap="round" stroke-linejoin="round" stroke-miterlimit="10" x1="937.6" y1="303.3" x2="948.1" y2="300.7"/>
		
			<line id="XMLID_115_" fill="none" stroke="#231F20" stroke-width="11" stroke-linecap="round" stroke-linejoin="round" stroke-miterlimit="10" x1="960.9" y1="279.8" x2="958.4" y2="269.3"/>
		
			<line id="XMLID_114_" fill="none" stroke="#231F20" stroke-width="11" stroke-linecap="round" stroke-linejoin="round" stroke-miterlimit="10" x1="950.2" y1="287.6" x2="941" y2="282"/>
	</g>
</g>
</svg>
