<?xml version="1.0" encoding="utf-8"?>
<!-- Generator: Adobe Illustrator 19.0.0, SVG Export Plug-In . SVG Version: 6.00 Build 0)  -->
<svg version="1.1" id="Layer_1" xmlns="http://www.w3.org/2000/svg" xmlns:xlink="http://www.w3.org/1999/xlink" x="0px" y="0px"
	 width="1400px" height="980px" viewBox="0 0 1400 980" enable-background="new 0 0 1400 980" xml:space="preserve">
<g id="XMLID_127_">
	<polygon id="XMLID_136_" fill="#D5E1EF" points="778.8,691.9 767.8,767 767.5,769.2 688.4,835.1 687.6,835 646.2,825.6 580,723.6 
		579.3,722.6 579.1,722.2 588.6,630.1 589,629.7 682.1,525.4 682.5,524.9 743.9,631.4 778.7,691.8 	"/>
	<polygon id="XMLID_133_" fill="#A7B6D3" points="778.7,691.8 739.5,746.6 743.9,631.4 	"/>
	<polygon id="XMLID_132_" fill="#A7B6D3" points="695,604.5 656.3,652.1 579.3,722.6 579.1,722.2 588.6,630.1 589,629.7 	"/>
	<polygon id="XMLID_131_" fill="#84AECE" points="651,729.4 646.2,825.6 580,723.6 	"/>
	<polygon id="XMLID_129_" fill="#5F92BF" points="767.8,767 767.5,769.2 688.4,835.1 687.6,835 699.2,775.1 739.5,746.6 	"/>
	<polygon id="XMLID_130_" fill="#5A649F" points="695,604.5 588.6,630.1 682.1,525.4 	"/>
	
		<polygon id="XMLID_119_" fill="none" stroke="#231F20" stroke-width="11" stroke-linecap="round" stroke-linejoin="round" stroke-miterlimit="10" points="
		682.5,524.9 588.6,630.1 579.1,722.2 646.2,825.6 688.4,835.1 767.5,769.2 778.8,691.9 	"/>
	
		<polygon id="XMLID_112_" fill="none" stroke="#231F20" stroke-width="11" stroke-linecap="round" stroke-linejoin="round" stroke-miterlimit="10" points="
		656.3,652.1 695,604.5 742.1,628.3 739.5,746.6 699.2,775.1 651,729.4 	"/>
	
		<polyline id="XMLID_121_" fill="none" stroke="#231F20" stroke-width="11" stroke-linecap="round" stroke-linejoin="round" stroke-miterlimit="10" points="
		767.5,769.2 739.5,746.6 778.8,691.9 	"/>
	
		<polyline id="XMLID_120_" fill="none" stroke="#231F20" stroke-width="11" stroke-linecap="round" stroke-linejoin="round" stroke-miterlimit="10" points="
		688.4,835.1 699.2,775.1 646.2,825.6 651,729.4 579.1,722.2 656.3,652.1 588.6,630.1 695,604.5 682.5,524.9 	"/>
	
		<polyline id="XMLID_122_" fill="none" stroke="#231F20" stroke-width="11" stroke-linecap="round" stroke-linejoin="round" stroke-miterlimit="10" points="
		652.7,704.9 673.6,723.6 677.2,754.2 	"/>
	<g id="XMLID_123_">
		
			<line id="XMLID_126_" fill="none" stroke="#231F20" stroke-width="11" stroke-linecap="round" stroke-linejoin="round" stroke-miterlimit="10" x1="555.8" y1="629.1" x2="565.1" y2="626.9"/>
		
			<line id="XMLID_125_" fill="none" stroke="#231F20" stroke-width="11" stroke-linecap="round" stroke-linejoin="round" stroke-miterlimit="10" x1="576.5" y1="608.2" x2="574.3" y2="598.8"/>
		
			<line id="XMLID_124_" fill="none" stroke="#231F20" stroke-width="11" stroke-linecap="round" stroke-linejoin="round" stroke-miterlimit="10" x1="567" y1="615.2" x2="558.8" y2="610.2"/>
	</g>
	<g id="XMLID_128_">
		
			<line id="XMLID_137_" fill="none" stroke="#231F20" stroke-width="11" stroke-linecap="round" stroke-linejoin="round" stroke-miterlimit="10" x1="818.9" y1="507.7" x2="813.9" y2="515.9"/>
		
			<line id="XMLID_135_" fill="none" stroke="#231F20" stroke-width="11" stroke-linecap="round" stroke-linejoin="round" stroke-miterlimit="10" x1="819" y1="537.1" x2="827.2" y2="542.1"/>
		
			<line id="XMLID_134_" fill="none" stroke="#231F20" stroke-width="11" stroke-linecap="round" stroke-linejoin="round" stroke-miterlimit="10" x1="820.9" y1="525.4" x2="830.2" y2="523.2"/>
	</g>
	<polygon id="XMLID_144_" fill="#5F92BF" points="799.5,534.5 787.7,641.5 787.4,641.3 744,582.3 744.1,581.7 749.6,518 
		749.6,517.9 798.9,534.3 	"/>
	<polygon id="XMLID_143_" fill="#5A649F" points="798.9,534.3 784.4,555.1 749.6,518 749.6,517.9 	"/>
	<polygon id="XMLID_142_" fill="#A7B6D3" points="787.4,641.3 744,582.3 744.1,581.7 784.4,555.1 	"/>
	
		<polygon id="XMLID_141_" fill="none" stroke="#231F20" stroke-width="11" stroke-linecap="round" stroke-linejoin="round" stroke-miterlimit="10" points="
		749.6,517.9 799.5,534.5 787.7,641.5 744,582.3 	"/>
	
		<polyline id="XMLID_140_" fill="none" stroke="#231F20" stroke-width="11" stroke-linecap="round" stroke-linejoin="round" stroke-miterlimit="10" points="
		749.6,517.9 784.4,555.1 787.7,641.5 	"/>
	
		<polyline id="XMLID_139_" fill="none" stroke="#231F20" stroke-width="11" stroke-linecap="round" stroke-linejoin="round" stroke-miterlimit="10" points="
		744,582.3 784.4,555.1 799.5,534.5 	"/>
</g>
</svg>
