<?xml version="1.0" encoding="utf-8"?>
<!-- Generator: Adobe Illustrator 19.0.0, SVG Export Plug-In . SVG Version: 6.00 Build 0)  -->
<svg version="1.1" id="Layer_1" xmlns="http://www.w3.org/2000/svg" xmlns:xlink="http://www.w3.org/1999/xlink" x="0px" y="0px"
	 width="200" height="200" viewBox="0 0 50 50" enable-background="" xml:space="preserve">
<g id="XMLID_78_">
	<g id="XMLID_20_">
		<g id="XMLID_18_">
			<polygon id="XMLID_29_" fill="#A7B6D3" points="319,175.1 318.9,175.8 293.6,396.8 275.4,399.7 257.6,402.5 238.8,405.5 
				186.8,175.1 188,174 253.8,117.3 			"/>
			<polygon id="XMLID_19_" fill="#84AECE" points="225,202 253.8,117.3 272,214.6 			"/>
			<polygon id="XMLID_25_" fill="#5A649F" points="257.6,402.5 238.8,405.5 186.8,175.1 188,174 194.5,180.5 225,202 			"/>
			<polygon id="XMLID_26_" fill="#5F92BF" points="318.9,175.8 293.6,396.8 275.4,399.7 275.4,211.7 			"/>
			
				<polygon id="XMLID_16_" fill="none" stroke="#231F20" stroke-width="11" stroke-linecap="round" stroke-linejoin="round" stroke-miterlimit="10" points="
				319,175.1 318.9,175.8 293.6,396.8 275.4,399.7 238.8,405.5 186.8,175.1 253.8,117.3 			"/>
			
				<polyline id="XMLID_17_" fill="none" stroke="#231F20" stroke-width="11" stroke-linecap="round" stroke-linejoin="round" stroke-miterlimit="10" points="
				186.8,175.1 225,202 272,214.6 319,175.1 			"/>
			
				<polyline id="XMLID_15_" fill="none" stroke="#231F20" stroke-width="11" stroke-linecap="round" stroke-linejoin="round" stroke-miterlimit="10" points="
				256.9,402.6 225,202 253.8,117.3 272,214.6 275.4,399.7 			"/>
		</g>
		<g id="XMLID_21_">
			<polygon id="XMLID_31_" fill="#5F92BF" points="399.5,299.7 399.1,300.1 295.7,417 284.1,411.4 272.7,405.8 260.7,399.9 
				323.4,246.6 324.5,246.4 385.1,240.3 			"/>
			<polygon id="XMLID_30_" fill="#5A649F" points="334.5,277.4 385.1,240.3 356.5,303.5 			"/>
			<polygon id="XMLID_28_" fill="#A7B6D3" points="272.7,405.8 260.7,399.9 323.4,246.6 324.5,246.4 325.6,252.8 334.5,277.4 			"/>
			<polygon id="XMLID_27_" fill="#5A649F" points="399.1,300.1 295.7,417 284.1,411.4 359.6,303.3 			"/>
			
				<polygon id="XMLID_24_" fill="none" stroke="#231F20" stroke-width="11" stroke-linecap="round" stroke-linejoin="round" stroke-miterlimit="10" points="
				399.5,299.7 399.1,300.1 295.7,417 284.1,411.4 260.7,399.9 323.4,246.6 385.1,240.3 			"/>
			
				<polyline id="XMLID_23_" fill="none" stroke="#231F20" stroke-width="11" stroke-linecap="round" stroke-linejoin="round" stroke-miterlimit="10" points="
				323.4,246.6 334.5,277.4 356.5,303.5 399.5,299.7 			"/>
			
				<polyline id="XMLID_22_" fill="none" stroke="#231F20" stroke-width="11" stroke-linecap="round" stroke-linejoin="round" stroke-miterlimit="10" points="
				272.3,405.6 334.5,277.4 385.1,240.3 356.5,303.5 284.1,411.4 			"/>
		</g>
	</g>
	<g id="XMLID_56_">
		
			<line id="XMLID_54_" fill="none" stroke="#231F20" stroke-width="11" stroke-linecap="round" stroke-linejoin="round" stroke-miterlimit="10" x1="175.3" y1="144.4" x2="177.8" y2="155.6"/>
		
			<line id="XMLID_42_" fill="none" stroke="#231F20" stroke-width="11" stroke-linecap="round" stroke-linejoin="round" stroke-miterlimit="10" x1="163.8" y1="177.7" x2="152.6" y2="180.3"/>
		
			<line id="XMLID_59_" fill="none" stroke="#231F20" stroke-width="11" stroke-linecap="round" stroke-linejoin="round" stroke-miterlimit="10" x1="166.2" y1="163.8" x2="156.5" y2="157.6"/>
	</g>
	<g id="XMLID_60_">
		
			<line id="XMLID_64_" fill="none" stroke="#231F20" stroke-width="11" stroke-linecap="round" stroke-linejoin="round" stroke-miterlimit="10" x1="417.1" y1="242.6" x2="405.6" y2="241.9"/>
		
			<line id="XMLID_62_" fill="none" stroke="#231F20" stroke-width="11" stroke-linecap="round" stroke-linejoin="round" stroke-miterlimit="10" x1="388.2" y1="222.3" x2="388.9" y2="210.8"/>
		
			<line id="XMLID_61_" fill="none" stroke="#231F20" stroke-width="11" stroke-linecap="round" stroke-linejoin="round" stroke-miterlimit="10" x1="401" y1="228.5" x2="409.6" y2="220.8"/>
	</g>
</g>
</svg>
